<svg xmlns="http://www.w3.org/2000/svg" xmlns:xlink="http://www.w3.org/1999/xlink" version="1.1" x="0px" y="0px" viewBox="0 0 100 125" enable-background="new 0 0 100 100" xml:space="preserve"><g><defs><rect id="b" width="100" height="100"/></defs><clipPath id="a"><use xlink:href="#b" overflow="visible"/></clipPath><path clip-path="url(#a)" d="M83.3017578,34.3461914c-9.6953125-0.3520508-10.375-7.1293945-10.3818359-11.8300781   c-0.0087891-4.7021484-3.5810547-8.5039062-7.9990234-8.5039062c-2.0966797,0-4.0029297,0.8588867-5.4296875,2.2617188   c-7.4560547,5.9902344-12.2158203,0.3500977-13.5844727-1.6767578c-0.0991211-0.1650391-0.2021484-0.3261719-0.309082-0.4853516   C45.5307617,14,45.496582,13.9360352,45.496582,13.9360352l-0.0039062,0.019043   c-1.9169922-2.7348633-5.0239258-4.4711914-8.5073242-4.3388672c-5.2397461,0.1977539-9.4638672,4.6938477-9.7587891,10.2597656   c-0.0737305,1.3979492-0.0678711,2.2978516,1.0302734,5.2861328c1.0966797,2.987793-1.2114258,5.1547852-4.2700195,3.1831055   c-2.484375-1.6020508-5.3720703-2.9760742-8.5180664-2.9223633C8.8085938,25.5380859,3.4287109,31.4130859,3.4887695,38.4931641   c0.0317383,3.7080078,1.5288086,7.0429688,3.9047852,9.3837891c1.5361328,1.512207,1.8920898,3.9785156,0.8500977,5.9091797   c-0.9360352,1.7363281-1.453125,3.7724609-1.453125,5.6279297c0,5.9550781,4.5400391,10.7822266,10.1411133,10.7822266   c7.1899414,0,12.8198242,1.3193359,12.8540039,12.5751953c0.0131836,4.1757812,3.2431641,7.6777344,7.1708984,7.6181641   c3.2109375-0.046875,5.902832-2.3720703,6.7158203-5.5214844l0.0014648,0.0019531   c1.3666992-4.1855469,6.5605469-8.4775391,17.3369141-1.1376953c0.1025391,0.0732422,0.2070312,0.1455078,0.3134766,0.2138672   c0.0009766,0.0009766,0.0009766,0.0009766,0.0019531,0.0019531c1.0986328,0.7070312,2.3828125,1.1181641,3.7578125,1.1279297   c3.8886719,0.0292969,7.1650391-3.2236328,7.3935547-7.3505859c0.0322266-0.5722656,0.0048828-1.1318359-0.0742188-1.6728516   c-0.6347656-8.9501953,10.8105469-5.5332031,11.3408203-5.3427734c0.0009766,0.0009766,0.0009766,0,0.0029297,0.0009766   c0.5048828,0.1943359,1.0585938,0.2802734,1.6376953,0.2304688c1.8798828-0.1650391,3.3916016-1.7949219,3.5214844-3.796875   c0.1181641-1.8232422-0.8876953-3.4160156-2.3544922-4.0703125l0.0009766-0.0009766   c-8.2128906-3.7207031,2.3486328-15.0771484,2.3486328-15.0771484l-0.0019531,0.0009766   c1.2675781-1.4501953,2.0429688-3.3920898,2.0429688-5.5268555C90.9423828,37.9829102,87.5214844,34.3461914,83.3017578,34.3461914    M10.2265625,61.4462891c-0.3027344,0-0.5488281-0.2607422-0.5507812-0.5820312v-0.0410156   c0-0.3232422,0.246582-0.5849609,0.5507812-0.5849609S10.7763672,60.5,10.7763672,60.8232422v0.0341797   c0.0024414,0.3222656-0.2426758,0.5869141-0.546875,0.5888672H10.2265625z M15.8496094,66.9208984   c-0.0439453,0.0673828-0.1020508,0.1201172-0.1650391,0.15625c0,0-0.0268555,0.0146484-0.078125,0.0380859   c-0.0517578,0.0244141-0.1269531,0.0507812-0.2260742,0.0869141c-0.0488281,0.015625-0.1040039,0.0341797-0.1635742,0.0488281   c-0.0600586,0.0126953-0.125,0.0234375-0.1953125,0.0341797c-0.1396484,0.0175781-0.3007812,0.0400391-0.4741211,0.0263672   c-0.0869141-0.0019531-0.1757812-0.0117188-0.2695312-0.0175781c-0.0922852-0.015625-0.1879883-0.0322266-0.2851562-0.0546875   c-0.1982422-0.0361328-0.394043-0.1171875-0.5981445-0.1953125c-0.1010742-0.0429688-0.2011719-0.09375-0.3027344-0.1416016   c-0.0512695-0.0244141-0.1020508-0.0488281-0.1533203-0.0751953c-0.0488281-0.0292969-0.0986328-0.0595703-0.1489258-0.0878906   c-0.0981445-0.0615234-0.2011719-0.1152344-0.296875-0.1835938c-0.0952148-0.0683594-0.1899414-0.1376953-0.2861328-0.2070312   c-0.09375-0.0693359-0.1821289-0.1494141-0.2709961-0.2265625c-0.0898438-0.0751953-0.1738281-0.15625-0.2548828-0.2402344   c-0.1660156-0.1630859-0.3139648-0.3388672-0.4521484-0.5126953c-0.0688477-0.0869141-0.1289062-0.1787109-0.1899414-0.2666016   c-0.0600586-0.0888672-0.1201172-0.1738281-0.1689453-0.2636719c-0.1020508-0.1767578-0.1958008-0.3427734-0.2651367-0.5078125   c-0.0371094-0.0810547-0.0717773-0.1572266-0.1030273-0.2333984c-0.0297852-0.0800781-0.0581055-0.1542969-0.0810547-0.2255859   c-0.0239258-0.0712891-0.0458984-0.1367188-0.0668945-0.1982422c-0.0180664-0.0595703-0.027832-0.1064453-0.0390625-0.1552734   c-0.0419922-0.1845703-0.0620117-0.2929688-0.0620117-0.2929688c-0.046875-0.2509766,0.105957-0.4931641,0.3422852-0.5439453   c0.1669922-0.0351562,0.3310547,0.0361328,0.4287109,0.1689453c0,0,0.0629883,0.0878906,0.1679688,0.2421875   c0.0273438,0.0371094,0.0541992,0.0859375,0.0849609,0.1259766c0.0302734,0.0371094,0.0634766,0.078125,0.0991211,0.1220703   c0.0351562,0.0429688,0.0703125,0.0888672,0.1069336,0.1367188c0.0410156,0.0498047,0.0849609,0.1015625,0.1313477,0.1552734   c0.0869141,0.1103516,0.190918,0.21875,0.2998047,0.3339844c0.0512695,0.0605469,0.1108398,0.1152344,0.1708984,0.1708984   c0.0610352,0.0566406,0.1152344,0.1191406,0.1811523,0.1728516c0.0649414,0.0556641,0.1298828,0.1103516,0.1938477,0.1679688   c0.0629883,0.0595703,0.137207,0.1064453,0.2050781,0.1611328c0.0668945,0.0556641,0.137207,0.109375,0.2109375,0.1552734   c0.0742188,0.0478516,0.1430664,0.1025391,0.2182617,0.1484375c0.1499023,0.0898438,0.296875,0.1816406,0.4506836,0.2568359   l0.1123047,0.0595703l0.1147461,0.0507812c0.0761719,0.0341797,0.1489258,0.0712891,0.2241211,0.1015625   c0.1518555,0.0507812,0.2939453,0.1181641,0.434082,0.1660156c0.1386719,0.0566406,0.2709961,0.1113281,0.3920898,0.1611328   c0.125,0.0556641,0.2397461,0.1074219,0.3408203,0.1523438c0.0522461,0.0263672,0.1010742,0.0507812,0.1459961,0.0761719   c0.0458984,0.0195312,0.0888672,0.0410156,0.1269531,0.0605469c0.078125,0.0439453,0.1401367,0.0742188,0.1831055,0.1044922   c0.0429688,0.0263672,0.065918,0.0429688,0.065918,0.0429688l0.0488281,0.0371094   C15.949707,66.3740234,16.0014648,66.6923828,15.8496094,66.9208984 M37.2973633,12.4838867   c0.0522461-0.2358398,0.2734375-0.3828125,0.4951172-0.3291016l0.0380859,0.0102539   c0.222168,0.0581055,0.3569336,0.2949219,0.3032227,0.5297852c-0.0463867,0.2011719-0.2143555,0.3349609-0.4003906,0.3349609   c-0.0327148,0-0.065918-0.0039062-0.0976562-0.0117188l-0.0292969-0.0068359   C37.3847656,12.9560547,37.246582,12.7202148,37.2973633,12.4838867 M35.2617188,87.7177734   c-0.0039062,0.0019531-0.0102539,0.0048828-0.0141602,0.0068359c0,0-0.0400391,0.0166016-0.0898438,0.0175781   c-0.050293,0.0019531-0.1113281-0.0136719-0.1660156-0.0429688c-0.0561523-0.0283203-0.1079102-0.0654297-0.144043-0.1025391   c-0.0361328-0.0351562-0.0561523-0.0693359-0.0561523-0.0693359c-0.1020508-0.1738281-0.0517578-0.4023438,0.1113281-0.5107422   c0.0317383-0.0205078,0.0678711-0.0351562,0.1015625-0.0458984c0,0,0.0371094-0.0087891,0.0874023-0.0078125   c0.0488281,0.0009766,0.1108398,0.0126953,0.1689453,0.0341797c0.0600586,0.0195312,0.112793,0.0537109,0.1479492,0.0927734   c0.034668,0.0371094,0.0527344,0.0791016,0.0527344,0.0791016C35.5488281,87.3789062,35.4594727,87.625,35.2617188,87.7177734    M36.1513672,12.9179688c-0.0458984,0.012207-0.1015625,0.0200195-0.1547852,0.0361328   c-0.0478516,0.0161133-0.1010742,0.0336914-0.1572266,0.0537109c-0.0556641,0.019043-0.1137695,0.0371094-0.1757812,0.0551758   c-0.0629883,0.0219727-0.1308594,0.0507812-0.2001953,0.0771484c-0.0698242,0.0288086-0.1425781,0.0537109-0.2158203,0.0859375   c-0.0727539,0.0336914-0.1469727,0.0698242-0.2250977,0.105957c-0.0766602,0.0307617-0.1538086,0.0737305-0.230957,0.1181641   c-0.0771484,0.0449219-0.1577148,0.0820312-0.2358398,0.1308594c-0.1542969,0.1030273-0.3168945,0.1958008-0.4672852,0.3178711   c-0.1586914,0.1049805-0.2988281,0.2441406-0.4477539,0.3671875c-0.1381836,0.1376953-0.2802734,0.269043-0.4038086,0.4169922   l-0.0952148,0.105957c-0.03125,0.0361328-0.0581055,0.074707-0.0878906,0.1118164   c-0.0571289,0.0751953-0.1162109,0.1459961-0.1699219,0.2202148c-0.097168,0.1557617-0.2070312,0.2939453-0.2929688,0.4399414   c-0.0454102,0.0717773-0.0952148,0.137207-0.1401367,0.2041016c-0.0429688,0.0678711-0.0810547,0.1347656-0.125,0.1967773   c-0.0878906,0.1240234-0.1611328,0.2431641-0.2319336,0.3500977c-0.0371094,0.0517578-0.0712891,0.1020508-0.105957,0.1479492   c-0.0292969,0.046875-0.059082,0.0898438-0.0849609,0.1298828c-0.0571289,0.078125-0.1010742,0.1420898-0.137207,0.184082   c-0.0332031,0.0429688-0.0541992,0.0649414-0.0541992,0.0649414l-0.0375977,0.0410156   c-0.1640625,0.1772461-0.4321289,0.1782227-0.5981445,0.0039062c-0.0639648-0.0668945-0.1040039-0.1508789-0.1191406-0.2387695   c0,0-0.0058594-0.0341797-0.0107422-0.0961914c-0.0073242-0.0629883-0.0092773-0.152832-0.0131836-0.2709961   c0-0.0576172-0.0009766-0.1230469,0.0019531-0.1928711c0.0058594-0.0698242,0.0170898-0.144043,0.027832-0.2241211   c0.0244141-0.1586914,0.0522461-0.3408203,0.1171875-0.527832c0.027832-0.0952148,0.0639648-0.190918,0.0981445-0.2929688   c0.0439453-0.097168,0.0888672-0.1972656,0.1396484-0.2978516c0.0932617-0.2070312,0.2333984-0.3994141,0.3691406-0.6020508   c0.0732422-0.0981445,0.152832-0.1933594,0.230957-0.2900391c0.0390625-0.0493164,0.078125-0.0991211,0.1201172-0.1450195   l0.1318359-0.137207c0.090332-0.0888672,0.1743164-0.1870117,0.2719727-0.269043   c0.097168-0.0820312,0.1943359-0.1650391,0.2910156-0.2480469c0.1000977-0.0786133,0.2060547-0.1499023,0.309082-0.2226562   c0.1010742-0.0751953,0.2099609-0.1381836,0.3168945-0.2001953c0.2133789-0.1279297,0.434082-0.2270508,0.6484375-0.3198242   c0.1079102-0.0439453,0.2167969-0.078125,0.3227539-0.1142578c0.1049805-0.0356445,0.2089844-0.0698242,0.3129883-0.0908203   c0.1030273-0.0229492,0.203125-0.0458984,0.2988281-0.0678711c0.097168-0.0200195,0.1933594-0.0263672,0.2841797-0.0380859   c0.0908203-0.0102539,0.1757812-0.0219727,0.2597656-0.0268555c0.0874023-0.0043945,0.1694336-0.0073242,0.2451172-0.0063477   c0.0761719,0,0.1479492,0,0.2128906,0c0.0634766,0.0029297,0.1132812,0.0102539,0.1621094,0.0151367   c0.1933594,0.0239258,0.3041992,0.0410156,0.3041992,0.0410156c0.2158203,0.0332031,0.3657227,0.2470703,0.3349609,0.4770508   c-0.0239258,0.1728516-0.144043,0.3071289-0.2949219,0.347168C36.449707,12.8442383,36.3417969,12.8730469,36.1513672,12.9179688    M40.0205078,87.2412109c0,0-0.1049805,0.2578125-0.3808594,0.4707031   c-0.0668945,0.0556641-0.1450195,0.1074219-0.2299805,0.1533203c-0.0849609,0.0488281-0.1801758,0.0849609-0.2792969,0.1220703   c-0.0986328,0.0322266-0.2006836,0.0712891-0.3076172,0.0976562c-0.105957,0.03125-0.215332,0.0537109-0.3251953,0.0761719   c-0.21875,0.0400391-0.4399414,0.0625-0.6479492,0.0644531c-0.2080078,0.0009766-0.4008789-0.0117188-0.5639648-0.0419922   c-0.0810547-0.0126953-0.1572266-0.0244141-0.2250977-0.0419922c-0.0688477-0.0166016-0.1259766-0.0302734-0.1679688-0.0449219   c-0.0869141-0.0292969-0.137207-0.0488281-0.137207-0.0488281c-0.152832-0.0595703-0.2319336-0.2412109-0.1748047-0.4042969   c0.0341797-0.0996094,0.112793-0.1708984,0.203125-0.1953125c0,0,0.0517578-0.0146484,0.1411133-0.0341797   c0.046875-0.0087891,0.0966797-0.0214844,0.1518555-0.0361328c0.0571289-0.0126953,0.1201172-0.0283203,0.1889648-0.0449219   c0.0698242-0.0166016,0.1450195-0.0361328,0.2250977-0.0546875c0.0791016-0.0185547,0.1606445-0.0429688,0.2460938-0.0634766   c0.0839844-0.0253906,0.1708984-0.0458984,0.2587891-0.0742188c0.0878906-0.0214844,0.1748047-0.0537109,0.2631836-0.0791016   c0.1748047-0.0566406,0.3476562-0.1171875,0.5087891-0.1767578c0.1591797-0.0664062,0.3120117-0.1123047,0.4521484-0.140625   c0.0698242-0.0126953,0.1367188-0.0214844,0.1967773-0.0283203c0.0610352-0.0048828,0.1191406-0.0039062,0.1640625-0.0068359   c0.0952148,0.0019531,0.1572266,0.0126953,0.1572266,0.0126953l0.019043,0.0029297   c0.190918,0.0332031,0.3198242,0.2255859,0.2885742,0.4287109C40.0405273,87.1826172,40.0317383,87.2138672,40.0205078,87.2412109    M68.5449219,81.3564453c0,0-0.0410156,0.0878906-0.1289062,0.2275391   c-0.0439453,0.0712891-0.1035156,0.1513672-0.1777344,0.2353516C68.1650391,81.9052734,68.078125,82,67.9736328,82.0869141   c-0.0507812,0.0458984-0.1064453,0.0898438-0.1640625,0.1367188c-0.0595703,0.0410156-0.1220703,0.0859375-0.1875,0.1269531   c-0.0654297,0.0439453-0.1337891,0.0849609-0.2060547,0.1201172c-0.0722656,0.0380859-0.1474609,0.0751953-0.2236328,0.1113281   c-0.15625,0.0625-0.3144531,0.1367188-0.4833984,0.1865234c-0.1660156,0.0605469-0.3408203,0.1005859-0.5136719,0.1425781   c-0.1748047,0.0332031-0.3486328,0.0654297-0.5224609,0.0810547c-0.1738281,0.0195312-0.3457031,0.0224609-0.5107422,0.0244141   c-0.1650391-0.0058594-0.3242188-0.0107422-0.4746094-0.03125c-0.1503906-0.0185547-0.2910156-0.0361328-0.4189453-0.0693359   c-0.1269531-0.0263672-0.2460938-0.0556641-0.3515625-0.0908203c-0.0527344-0.0166016-0.1015625-0.03125-0.1464844-0.0449219   c-0.0429688-0.015625-0.078125-0.0302734-0.1123047-0.0439453c-0.1337891-0.0566406-0.2089844-0.0898438-0.2089844-0.0898438   c-0.1464844-0.0673828-0.2138672-0.2470703-0.1513672-0.4023438c0.046875-0.1181641,0.1552734-0.1884766,0.2695312-0.1865234   c0,0,0.0820312,0.0019531,0.2265625,0.0097656c0.0341797,0.0009766,0.0751953,0.0068359,0.1162109,0.0068359   c0.0390625,0,0.0820312-0.0009766,0.1269531-0.0019531c0.0458984-0.0009766,0.09375,0.0009766,0.1425781,0.0019531   c0.0517578-0.0019531,0.1054688-0.0039062,0.1630859-0.0058594c0.1132812-0.0029297,0.234375-0.0107422,0.3632812-0.0214844   C64.8339844,82.0400391,64.9677734,82.0146484,65.1054688,82c0.1367188-0.0263672,0.2792969-0.0429688,0.4199219-0.0800781   c0.1435547-0.0253906,0.2841797-0.0722656,0.4257812-0.1064453c0.1396484-0.0478516,0.2802734-0.0888672,0.4140625-0.1425781   c0.1376953-0.0478516,0.265625-0.1103516,0.3925781-0.1621094c0.1220703-0.0654297,0.2460938-0.1152344,0.3574219-0.1748047   c0.1162109-0.0527344,0.2265625-0.1035156,0.3271484-0.1513672c0.1044922-0.0458984,0.2001953-0.0869141,0.2851562-0.1240234   c0.0888672-0.0332031,0.1679688-0.0634766,0.2324219-0.0898438c0.1318359-0.0488281,0.2177734-0.0683594,0.2177734-0.0683594   l0.0244141-0.0068359c0.1660156-0.0380859,0.3300781,0.0722656,0.3662109,0.2480469   C68.5849609,81.2167969,68.5742188,81.2919922,68.5449219,81.3564453 M87.3867188,39.9980469   c-0.0126953-0.0170898-0.0263672-0.0390625-0.0410156-0.0571289c-0.0136719-0.0170898-0.0292969-0.0351562-0.0458984-0.0537109   c-0.0322266-0.0390625-0.0683594-0.0839844-0.1074219-0.1323242c-0.0390625-0.0488281-0.0820312-0.1020508-0.1279297-0.1547852   c-0.0429688-0.0561523-0.0947266-0.1088867-0.1416016-0.1679688c-0.0527344-0.0541992-0.1005859-0.1142578-0.1552734-0.1689453   c-0.0498047-0.059082-0.109375-0.1103516-0.1611328-0.1679688c-0.0566406-0.0532227-0.109375-0.109375-0.1669922-0.1591797   c-0.0546875-0.0498047-0.1113281-0.1000977-0.1640625-0.1479492c-0.0566406-0.0429688-0.1054688-0.0913086-0.1533203-0.137207   c-0.046875-0.0478516-0.0888672-0.0976562-0.1269531-0.1469727c-0.0371094-0.0498047-0.0693359-0.1020508-0.0996094-0.1489258   c-0.0292969-0.0478516-0.0507812-0.0991211-0.0722656-0.1357422c-0.0185547-0.043457-0.0341797-0.0761719-0.0439453-0.1030273   c-0.0097656-0.0263672-0.0136719-0.0419922-0.0136719-0.0419922l-0.0146484-0.0522461   c-0.0664062-0.2368164,0.0585938-0.4858398,0.2783203-0.5620117c0,0,0.015625-0.0058594,0.0439453-0.0107422   c0.0292969-0.0083008,0.0683594-0.012207,0.1210938-0.0180664c0.1015625-0.0073242,0.2451172,0,0.3984375,0.0546875   c0.078125,0.0253906,0.1572266,0.0639648,0.2373047,0.1113281c0.0810547,0.0458984,0.15625,0.1108398,0.2333984,0.1777344   c0.0742188,0.0703125,0.1533203,0.1401367,0.2236328,0.222168c0.0751953,0.078125,0.1425781,0.1650391,0.2099609,0.2519531   c0.1298828,0.1777344,0.2412109,0.3691406,0.3271484,0.5571289c0.0410156,0.0947266,0.0800781,0.1870117,0.1103516,0.277832   c0.0292969,0.0898438,0.0546875,0.1748047,0.0722656,0.2568359c0.0195312,0.078125,0.0341797,0.15625,0.0439453,0.2270508   c0.0097656,0.0712891,0.0166016,0.1289062,0.0166016,0.1708984c0.0019531,0.0883789,0.0009766,0.1401367,0.0009766,0.1401367   c-0.0068359,0.2001953-0.1640625,0.3579102-0.3525391,0.3510742c-0.0986328-0.0029297-0.1865234-0.0507812-0.2460938-0.1240234   C87.4697266,40.105957,87.4375,40.0668945,87.3867188,39.9980469 M88.5244141,41.3989258   c-0.0185547,0.2280273-0.1992188,0.3999023-0.4111328,0.3999023c-0.0117188,0-0.0234375-0.0009766-0.0371094-0.0019531   c-0.2265625-0.0209961-0.3945312-0.2348633-0.3740234-0.4760742l0.4111328,0.0390625l-0.4111328-0.0478516   c0-0.0009766,0.0009766-0.0151367,0.0029297-0.0161133c0.0195312-0.2407227,0.2207031-0.4208984,0.4472656-0.3969727   c0.2275391,0.0219727,0.3945312,0.2348633,0.3740234,0.4770508l-0.4121094-0.0268555L88.5244141,41.3989258z"/><path clip-path="url(#a)" d="M19.9023438,20.4628906c1.1191406,0,2.0258789-0.9638672,2.0258789-2.1538086   c0-1.1889648-0.9067383-2.1533203-2.0258789-2.1533203s-2.0258789,0.9643555-2.0258789,2.1533203   C17.8764648,19.4990234,18.7832031,20.4628906,19.9023438,20.4628906 M18.8071289,17.1767578   c0.0883789-0.1196289,0.2431641-0.2426758,0.4150391-0.3286133c0.0439453-0.0209961,0.0878906-0.0400391,0.1323242-0.0561523   c0.0429688-0.019043,0.0878906-0.0292969,0.1308594-0.0419922c0.0859375-0.0209961,0.1679688-0.0332031,0.237793-0.0361328   c0.0351562-0.0029297,0.0693359-0.0019531,0.0991211-0.0009766c0.03125-0.0009766,0.0551758,0.0009766,0.0722656,0.0029297   c0.0356445,0.0048828,0.0566406,0.0083008,0.0566406,0.0083008c0.0830078,0.0107422,0.1420898,0.0908203,0.1313477,0.1787109   c-0.0083008,0.0712891-0.059082,0.125-0.1220703,0.1381836c0,0-0.0209961,0.0039062-0.0571289,0.0107422   c-0.019043,0.0019531-0.0400391,0.0073242-0.059082,0.012207c-0.0209961,0.0048828-0.0429688,0.0097656-0.0708008,0.019043   c-0.1069336,0.0288086-0.2441406,0.0800781-0.3701172,0.152832c-0.1269531,0.0712891-0.2392578,0.1640625-0.328125,0.2319336   c-0.0449219,0.0351562-0.0830078,0.0639648-0.1088867,0.0849609c-0.0268555,0.0200195-0.0449219,0.03125-0.0449219,0.03125   l-0.0112305,0.0068359c-0.0756836,0.0449219-0.1708984,0.0170898-0.2138672-0.0639648   c-0.0229492-0.0429688-0.0258789-0.0917969-0.012207-0.1357422C18.684082,17.3911133,18.7163086,17.2939453,18.8071289,17.1767578"/><path clip-path="url(#a)" d="M80.2626953,75.5546875c-2.6904297,0-4.8720703,1.9589844-4.8720703,4.3759766   c0,2.4160156,2.1816406,4.375,4.8720703,4.375c2.6914062,0,4.8730469-1.9589844,4.8730469-4.375   C85.1357422,77.5136719,82.9541016,75.5546875,80.2626953,75.5546875 M79.7822266,77.4492188   c0,0-0.0673828,0.0136719-0.1845703,0.0390625c-0.0292969,0.0048828-0.0605469,0.0107422-0.0966797,0.0166016   c-0.0283203,0.0097656-0.0595703,0.0205078-0.0917969,0.0322266c-0.0654297,0.0195312-0.1376953,0.0380859-0.2226562,0.0771484   c-0.0410156,0.0166016-0.0839844,0.0322266-0.1279297,0.0498047c-0.0429688,0.0205078-0.0869141,0.0439453-0.1318359,0.0664062   c-0.0458984,0.0214844-0.0917969,0.0449219-0.1357422,0.0751953c-0.0449219,0.0273438-0.0908203,0.0546875-0.1386719,0.0830078   c-0.0878906,0.0683594-0.1816406,0.1298828-0.265625,0.2089844c-0.0908203,0.0712891-0.1679688,0.1611328-0.2490234,0.2441406   c-0.0712891,0.0947266-0.1533203,0.1777344-0.2138672,0.2783203c-0.0703125,0.0917969-0.1171875,0.1972656-0.1738281,0.2919922   c-0.0439453,0.1015625-0.1015625,0.1933594-0.1357422,0.2900391c-0.0195312,0.0478516-0.0400391,0.0927734-0.0605469,0.1376953   c-0.0166016,0.0458984-0.0332031,0.0898438-0.0488281,0.1318359c-0.0361328,0.0849609-0.0615234,0.1660156-0.0849609,0.2382812   c-0.0107422,0.0371094-0.0253906,0.0712891-0.0371094,0.1025391c-0.0097656,0.0322266-0.0166016,0.0625-0.0253906,0.0888672   c-0.0322266,0.1083984-0.0595703,0.1738281-0.0595703,0.1738281L77.28125,80.1171875   c-0.0634766,0.1513672-0.2304688,0.2216797-0.3740234,0.1542969c-0.0810547-0.0380859-0.1376953-0.1113281-0.1601562-0.1962891   c0,0-0.0205078-0.078125-0.0410156-0.2197266c-0.0117188-0.0703125-0.0205078-0.1572266-0.0175781-0.2578125   c0-0.0996094-0.0009766-0.2148438,0.0214844-0.3369141c0.0087891-0.0605469,0.0175781-0.125,0.03125-0.1914062   c0.015625-0.0644531,0.0332031-0.1318359,0.0546875-0.1992188c0.0341797-0.1396484,0.1015625-0.2734375,0.1630859-0.4150391   c0.0771484-0.1328125,0.1513672-0.2744141,0.25-0.4013672c0.0888672-0.1337891,0.1982422-0.2539062,0.3066406-0.3730469   c0.1191406-0.1074219,0.2333984-0.2197266,0.3623047-0.3085938C78,77.2714844,78.1386719,77.2050781,78.2646484,77.1298828   c0.1337891-0.0595703,0.2587891-0.1259766,0.3886719-0.1591797c0.0644531-0.0185547,0.125-0.0380859,0.1855469-0.0556641   c0.0605469-0.0146484,0.1201172-0.0253906,0.1757812-0.0341797c0.1103516-0.0234375,0.2216797-0.0322266,0.3193359-0.0361328   c0.0478516-0.0019531,0.0927734-0.0039062,0.1347656-0.0058594c0.0361328,0.0029297,0.0693359,0.0048828,0.0976562,0.0068359   c0.1191406,0.0117188,0.1875,0.0195312,0.1875,0.0195312c0.1533203,0.0146484,0.2646484,0.1582031,0.2509766,0.3203125   C79.9931641,77.3193359,79.8984375,77.4238281,79.7822266,77.4492188 M80.8261719,77.4560547   c-0.0341797,0-0.0693359-0.0068359-0.1025391-0.0214844l-0.0175781-0.0068359   c-0.1425781-0.0576172-0.2128906-0.2265625-0.1601562-0.3779297c0.0537109-0.1513672,0.2128906-0.2265625,0.3544922-0.1699219   l0.0273438,0.0117188c0.140625,0.0605469,0.2099609,0.2304688,0.1542969,0.3798828   C81.0390625,77.3857422,80.9345703,77.4560547,80.8261719,77.4560547"/><path clip-path="url(#a)" d="M94.1425781,68.6767578c-1.3095703,0-2.3701172,1.1279297-2.3701172,2.5195312   s1.0605469,2.5195312,2.3701172,2.5195312c1.3085938,0,2.3691406-1.1279297,2.3691406-2.5195312   S95.4511719,68.6767578,94.1425781,68.6767578 M94.1484375,69.8632812c0,0-0.0214844,0.0058594-0.0576172,0.0146484   c-0.0195312,0.0039062-0.0400391,0.0087891-0.0566406,0.0166016c-0.0195312,0.0058594-0.0400391,0.0107422-0.0664062,0.0214844   c-0.1015625,0.03125-0.2294922,0.0849609-0.3486328,0.1542969c-0.0292969,0.0185547-0.0585938,0.0341797-0.0869141,0.0546875   c-0.0283203,0.0175781-0.0537109,0.0400391-0.0810547,0.0576172c-0.0517578,0.0390625-0.1015625,0.0742188-0.1455078,0.1044922   s-0.0830078,0.0556641-0.1113281,0.0732422s-0.046875,0.0263672-0.046875,0.0263672l-0.0253906,0.0107422   c-0.1103516,0.0478516-0.2363281-0.0078125-0.28125-0.1240234c-0.0185547-0.0478516-0.0205078-0.0976562-0.0097656-0.1435547   c0,0,0.0263672-0.1074219,0.1181641-0.2314453c0.0439453-0.0634766,0.1054688-0.1279297,0.1796875-0.1884766   c0.0742188-0.0585938,0.1611328-0.1113281,0.25-0.15625c0.0449219-0.0214844,0.0908203-0.0410156,0.1367188-0.0566406   c0.0458984-0.0195312,0.0927734-0.0292969,0.1376953-0.0410156c0.0898438-0.0224609,0.1748047-0.0322266,0.2490234-0.0341797   c0.0351562-0.0009766,0.0703125,0,0.1025391,0.0009766c0.0332031,0.0019531,0.0576172,0.0039062,0.0742188,0.0078125   c0.0361328,0.0068359,0.0566406,0.0107422,0.0566406,0.0107422c0.1113281,0.0214844,0.1845703,0.1328125,0.1640625,0.25   C94.2861328,69.7783203,94.2236328,69.84375,94.1484375,69.8632812"/></g><text x="0" y="115" fill="#000000" font-size="5px" font-weight="bold" font-family="'Helvetica Neue', Helvetica, Arial-Unicode, Arial, Sans-serif">Created by Ryan Speziale</text><text x="0" y="120" fill="#000000" font-size="5px" font-weight="bold" font-family="'Helvetica Neue', Helvetica, Arial-Unicode, Arial, Sans-serif">from the Noun Project</text></svg>